<?xml version="1.0" encoding="utf-8" standalone="no"?>
<!DOCTYPE svg PUBLIC "-//W3C//DTD SVG 1.1//EN"
  "http://www.w3.org/Graphics/SVG/1.1/DTD/svg11.dtd">
<!-- Created with matplotlib (https://matplotlib.org/) -->
<svg height="288pt" version="1.1" viewBox="0 0 288 288" width="288pt" xmlns="http://www.w3.org/2000/svg" xmlns:xlink="http://www.w3.org/1999/xlink">
 <defs>
  <style type="text/css">
*{stroke-linecap:butt;stroke-linejoin:round;}
  </style>
 </defs>
 <g id="figure_1">
  <g id="patch_1">
   <path d="M 0 288 
L 288 288 
L 288 0 
L 0 0 
z
" style="fill:#ffffff;"/>
  </g>
  <g id="axes_1">
   <g id="patch_2">
    <path clip-path="url(#pcc9940b125)" d="M 147.6 57.142435 
C 132.239397 50.359027 114.900044 49.489731 98.938006 54.702802 
C 82.975969 59.915873 69.492099 70.851781 61.096225 85.393861 
C 52.700352 99.93594 49.971513 117.081268 53.43788 133.511333 
C 56.904247 149.941399 66.326755 164.523071 79.88166 174.43404 
C 78.596028 162.547873 80.462227 150.530104 85.291921 139.593566 
C 90.121614 128.657028 97.746675 119.182434 107.397581 112.12596 
C 108.683213 100.239794 113.075921 88.899001 120.132395 79.248095 
C 127.188868 69.597189 136.663462 61.972128 147.6 57.142435 
" style="fill:#ffff00;"/>
   </g>
   <g id="patch_3">
    <path clip-path="url(#pcc9940b125)" d="M 147.6 57.142435 
C 158.536538 61.972128 168.011132 69.597189 175.067605 79.248095 
C 182.124079 88.899001 186.516787 100.239794 187.802419 112.12596 
C 197.453325 119.182434 205.078386 128.657028 209.908079 139.593566 
C 214.737773 150.530104 216.603972 162.547873 215.31834 174.43404 
C 228.873245 164.523071 238.295753 149.941399 241.76212 133.511333 
C 245.228487 117.081268 242.499648 99.93594 234.103775 85.393861 
C 225.707901 70.851781 212.224031 59.915873 196.261994 54.702802 
C 180.299956 49.489731 162.960603 50.359027 147.6 57.142435 
" style="fill:#00ffff;"/>
   </g>
   <g id="patch_4">
    <path clip-path="url(#pcc9940b125)" d="M 147.6 57.142435 
C 136.663462 61.972128 127.188868 69.597189 120.132395 79.248095 
C 113.075921 88.899001 108.683213 100.239794 107.397581 112.12596 
C 119.063922 103.595857 133.147796 98.996179 147.6 98.996179 
C 162.052204 98.996179 176.136078 103.595857 187.802419 112.12596 
C 186.516787 100.239794 182.124079 88.899001 175.067605 79.248095 
C 168.011132 69.597189 158.536538 61.972128 147.6 57.142435 
" style="fill:#00ff00;opacity:0.85;stroke:#00ff00;stroke-linejoin:miter;"/>
   </g>
   <g id="patch_5">
    <path clip-path="url(#pcc9940b125)" d="M 79.88166 174.43404 
C 81.687358 191.128416 89.604203 206.579384 102.099873 217.796379 
C 114.595544 229.013373 130.808253 235.222793 147.6 235.222793 
C 164.391747 235.222793 180.604456 229.013373 193.100127 217.796379 
C 205.595797 206.579384 213.512642 191.128416 215.31834 174.43404 
C 205.667434 181.490513 194.32664 185.883222 182.440474 187.168854 
C 170.554308 188.454486 158.536538 186.588287 147.6 181.758593 
C 136.663462 186.588287 124.645692 188.454486 112.759526 187.168854 
C 100.87336 185.883222 89.532566 181.490513 79.88166 174.43404 
" style="fill:#ff00ff;"/>
   </g>
   <g id="patch_6">
    <path clip-path="url(#pcc9940b125)" d="M 79.88166 174.43404 
C 89.532566 181.490513 100.87336 185.883222 112.759526 187.168854 
C 124.645692 188.454486 136.663462 186.588287 147.6 181.758593 
C 134.379543 175.920297 123.354168 166.023143 116.128066 153.507168 
C 108.901964 140.991192 105.843465 126.49436 107.397581 112.12596 
C 97.746675 119.182434 90.121614 128.657028 85.291921 139.593566 
C 80.462227 150.530104 78.596028 162.547873 79.88166 174.43404 
" style="fill:#ff0000;opacity:0.85;stroke:#ff0000;stroke-linejoin:miter;"/>
   </g>
   <g id="patch_7">
    <path clip-path="url(#pcc9940b125)" d="M 187.802419 112.12596 
C 189.356535 126.49436 186.298036 140.991192 179.071934 153.507168 
C 171.845832 166.023143 160.820457 175.920297 147.6 181.758593 
C 158.536538 186.588287 170.554308 188.454486 182.440474 187.168854 
C 194.32664 185.883222 205.667434 181.490513 215.31834 174.43404 
C 216.603972 162.547873 214.737773 150.530104 209.908079 139.593566 
C 205.078386 128.657028 197.453325 119.182434 187.802419 112.12596 
" style="fill:#0000ff;opacity:0.85;stroke:#0000ff;stroke-linejoin:miter;"/>
   </g>
   <g id="patch_8">
    <path clip-path="url(#pcc9940b125)" d="M 107.397581 112.12596 
C 105.843465 126.49436 108.901964 140.991192 116.128066 153.507168 
C 123.354168 166.023143 134.379543 175.920297 147.6 181.758593 
C 160.820457 175.920297 171.845832 166.023143 179.071934 153.507168 
C 186.298036 140.991192 189.356535 126.49436 187.802419 112.12596 
C 176.136078 103.595857 162.052204 98.996179 147.6 98.996179 
C 133.147796 98.996179 119.063922 103.595857 107.397581 112.12596 
" style="opacity:0.9;stroke:#000000;stroke-linejoin:miter;"/>
   </g>
   <g id="text_1">
    <!-- Low -->
    <defs>
     <path d="M 9.8125 72.90625 
L 19.671875 72.90625 
L 19.671875 8.296875 
L 55.171875 8.296875 
L 55.171875 0 
L 9.8125 0 
z
" id="DejaVuSans-76"/>
     <path d="M 30.609375 48.390625 
Q 23.390625 48.390625 19.1875 42.75 
Q 14.984375 37.109375 14.984375 27.296875 
Q 14.984375 17.484375 19.15625 11.84375 
Q 23.34375 6.203125 30.609375 6.203125 
Q 37.796875 6.203125 41.984375 11.859375 
Q 46.1875 17.53125 46.1875 27.296875 
Q 46.1875 37.015625 41.984375 42.703125 
Q 37.796875 48.390625 30.609375 48.390625 
z
M 30.609375 56 
Q 42.328125 56 49.015625 48.375 
Q 55.71875 40.765625 55.71875 27.296875 
Q 55.71875 13.875 49.015625 6.21875 
Q 42.328125 -1.421875 30.609375 -1.421875 
Q 18.84375 -1.421875 12.171875 6.21875 
Q 5.515625 13.875 5.515625 27.296875 
Q 5.515625 40.765625 12.171875 48.375 
Q 18.84375 56 30.609375 56 
z
" id="DejaVuSans-111"/>
     <path d="M 4.203125 54.6875 
L 13.1875 54.6875 
L 24.421875 12.015625 
L 35.59375 54.6875 
L 46.1875 54.6875 
L 57.421875 12.015625 
L 68.609375 54.6875 
L 77.59375 54.6875 
L 63.28125 0 
L 52.6875 0 
L 40.921875 44.828125 
L 29.109375 0 
L 18.5 0 
z
" id="DejaVuSans-119"/>
    </defs>
    <g transform="translate(52.253207 51.337207)scale(0.17 -0.17)">
     <use xlink:href="#DejaVuSans-76"/>
     <use x="55.697266" xlink:href="#DejaVuSans-111"/>
     <use x="116.878906" xlink:href="#DejaVuSans-119"/>
    </g>
   </g>
   <g id="text_2">
    <!-- Medium -->
    <defs>
     <path d="M 9.8125 72.90625 
L 24.515625 72.90625 
L 43.109375 23.296875 
L 61.8125 72.90625 
L 76.515625 72.90625 
L 76.515625 0 
L 66.890625 0 
L 66.890625 64.015625 
L 48.09375 14.015625 
L 38.1875 14.015625 
L 19.390625 64.015625 
L 19.390625 0 
L 9.8125 0 
z
" id="DejaVuSans-77"/>
     <path d="M 56.203125 29.59375 
L 56.203125 25.203125 
L 14.890625 25.203125 
Q 15.484375 15.921875 20.484375 11.0625 
Q 25.484375 6.203125 34.421875 6.203125 
Q 39.59375 6.203125 44.453125 7.46875 
Q 49.3125 8.734375 54.109375 11.28125 
L 54.109375 2.78125 
Q 49.265625 0.734375 44.1875 -0.34375 
Q 39.109375 -1.421875 33.890625 -1.421875 
Q 20.796875 -1.421875 13.15625 6.1875 
Q 5.515625 13.8125 5.515625 26.8125 
Q 5.515625 40.234375 12.765625 48.109375 
Q 20.015625 56 32.328125 56 
Q 43.359375 56 49.78125 48.890625 
Q 56.203125 41.796875 56.203125 29.59375 
z
M 47.21875 32.234375 
Q 47.125 39.59375 43.09375 43.984375 
Q 39.0625 48.390625 32.421875 48.390625 
Q 24.90625 48.390625 20.390625 44.140625 
Q 15.875 39.890625 15.1875 32.171875 
z
" id="DejaVuSans-101"/>
     <path d="M 45.40625 46.390625 
L 45.40625 75.984375 
L 54.390625 75.984375 
L 54.390625 0 
L 45.40625 0 
L 45.40625 8.203125 
Q 42.578125 3.328125 38.25 0.953125 
Q 33.9375 -1.421875 27.875 -1.421875 
Q 17.96875 -1.421875 11.734375 6.484375 
Q 5.515625 14.40625 5.515625 27.296875 
Q 5.515625 40.1875 11.734375 48.09375 
Q 17.96875 56 27.875 56 
Q 33.9375 56 38.25 53.625 
Q 42.578125 51.265625 45.40625 46.390625 
z
M 14.796875 27.296875 
Q 14.796875 17.390625 18.875 11.75 
Q 22.953125 6.109375 30.078125 6.109375 
Q 37.203125 6.109375 41.296875 11.75 
Q 45.40625 17.390625 45.40625 27.296875 
Q 45.40625 37.203125 41.296875 42.84375 
Q 37.203125 48.484375 30.078125 48.484375 
Q 22.953125 48.484375 18.875 42.84375 
Q 14.796875 37.203125 14.796875 27.296875 
z
" id="DejaVuSans-100"/>
     <path d="M 9.421875 54.6875 
L 18.40625 54.6875 
L 18.40625 0 
L 9.421875 0 
z
M 9.421875 75.984375 
L 18.40625 75.984375 
L 18.40625 64.59375 
L 9.421875 64.59375 
z
" id="DejaVuSans-105"/>
     <path d="M 8.5 21.578125 
L 8.5 54.6875 
L 17.484375 54.6875 
L 17.484375 21.921875 
Q 17.484375 14.15625 20.5 10.265625 
Q 23.53125 6.390625 29.59375 6.390625 
Q 36.859375 6.390625 41.078125 11.03125 
Q 45.3125 15.671875 45.3125 23.6875 
L 45.3125 54.6875 
L 54.296875 54.6875 
L 54.296875 0 
L 45.3125 0 
L 45.3125 8.40625 
Q 42.046875 3.421875 37.71875 1 
Q 33.40625 -1.421875 27.6875 -1.421875 
Q 18.265625 -1.421875 13.375 4.4375 
Q 8.5 10.296875 8.5 21.578125 
z
M 31.109375 56 
z
" id="DejaVuSans-117"/>
     <path d="M 52 44.1875 
Q 55.375 50.25 60.0625 53.125 
Q 64.75 56 71.09375 56 
Q 79.640625 56 84.28125 50.015625 
Q 88.921875 44.046875 88.921875 33.015625 
L 88.921875 0 
L 79.890625 0 
L 79.890625 32.71875 
Q 79.890625 40.578125 77.09375 44.375 
Q 74.3125 48.1875 68.609375 48.1875 
Q 61.625 48.1875 57.5625 43.546875 
Q 53.515625 38.921875 53.515625 30.90625 
L 53.515625 0 
L 44.484375 0 
L 44.484375 32.71875 
Q 44.484375 40.625 41.703125 44.40625 
Q 38.921875 48.1875 33.109375 48.1875 
Q 26.21875 48.1875 22.15625 43.53125 
Q 18.109375 38.875 18.109375 30.90625 
L 18.109375 0 
L 9.078125 0 
L 9.078125 54.6875 
L 18.109375 54.6875 
L 18.109375 46.1875 
Q 21.1875 51.21875 25.484375 53.609375 
Q 29.78125 56 35.6875 56 
Q 41.65625 56 45.828125 52.96875 
Q 50 49.953125 52 44.1875 
z
" id="DejaVuSans-109"/>
    </defs>
    <g transform="translate(209.172574 51.337207)scale(0.17 -0.17)">
     <use xlink:href="#DejaVuSans-77"/>
     <use x="86.279297" xlink:href="#DejaVuSans-101"/>
     <use x="147.802734" xlink:href="#DejaVuSans-100"/>
     <use x="211.279297" xlink:href="#DejaVuSans-105"/>
     <use x="239.0625" xlink:href="#DejaVuSans-117"/>
     <use x="302.441406" xlink:href="#DejaVuSans-109"/>
    </g>
   </g>
   <g id="text_3">
    <!-- High -->
    <defs>
     <path d="M 9.8125 72.90625 
L 19.671875 72.90625 
L 19.671875 43.015625 
L 55.515625 43.015625 
L 55.515625 72.90625 
L 65.375 72.90625 
L 65.375 0 
L 55.515625 0 
L 55.515625 34.71875 
L 19.671875 34.71875 
L 19.671875 0 
L 9.8125 0 
z
" id="DejaVuSans-72"/>
     <path d="M 45.40625 27.984375 
Q 45.40625 37.75 41.375 43.109375 
Q 37.359375 48.484375 30.078125 48.484375 
Q 22.859375 48.484375 18.828125 43.109375 
Q 14.796875 37.75 14.796875 27.984375 
Q 14.796875 18.265625 18.828125 12.890625 
Q 22.859375 7.515625 30.078125 7.515625 
Q 37.359375 7.515625 41.375 12.890625 
Q 45.40625 18.265625 45.40625 27.984375 
z
M 54.390625 6.78125 
Q 54.390625 -7.171875 48.1875 -13.984375 
Q 42 -20.796875 29.203125 -20.796875 
Q 24.46875 -20.796875 20.265625 -20.09375 
Q 16.0625 -19.390625 12.109375 -17.921875 
L 12.109375 -9.1875 
Q 16.0625 -11.328125 19.921875 -12.34375 
Q 23.78125 -13.375 27.78125 -13.375 
Q 36.625 -13.375 41.015625 -8.765625 
Q 45.40625 -4.15625 45.40625 5.171875 
L 45.40625 9.625 
Q 42.625 4.78125 38.28125 2.390625 
Q 33.9375 0 27.875 0 
Q 17.828125 0 11.671875 7.65625 
Q 5.515625 15.328125 5.515625 27.984375 
Q 5.515625 40.671875 11.671875 48.328125 
Q 17.828125 56 27.875 56 
Q 33.9375 56 38.28125 53.609375 
Q 42.625 51.21875 45.40625 46.390625 
L 45.40625 54.6875 
L 54.390625 54.6875 
z
" id="DejaVuSans-103"/>
     <path d="M 54.890625 33.015625 
L 54.890625 0 
L 45.90625 0 
L 45.90625 32.71875 
Q 45.90625 40.484375 42.875 44.328125 
Q 39.84375 48.1875 33.796875 48.1875 
Q 26.515625 48.1875 22.3125 43.546875 
Q 18.109375 38.921875 18.109375 30.90625 
L 18.109375 0 
L 9.078125 0 
L 9.078125 75.984375 
L 18.109375 75.984375 
L 18.109375 46.1875 
Q 21.34375 51.125 25.703125 53.5625 
Q 30.078125 56 35.796875 56 
Q 45.21875 56 50.046875 50.171875 
Q 54.890625 44.34375 54.890625 33.015625 
z
" id="DejaVuSans-104"/>
    </defs>
    <g transform="translate(128.063281 254.951467)scale(0.17 -0.17)">
     <use xlink:href="#DejaVuSans-72"/>
     <use x="75.195312" xlink:href="#DejaVuSans-105"/>
     <use x="102.978516" xlink:href="#DejaVuSans-103"/>
     <use x="166.455078" xlink:href="#DejaVuSans-104"/>
    </g>
   </g>
  </g>
 </g>
 <defs>
  <clipPath id="pcc9940b125">
   <rect height="215.827131" width="223.2" x="36" y="35.366434"/>
  </clipPath>
 </defs>
</svg>
